# xmcd
#
# Track frame offsets:
#	150
#	11503
#	23879
#	42408
#	56142
#	67995
#	80652
#	96803
#	110577
#	129912
#	146058
#	156806
#
# Disc length: 2236 seconds
#
# Revision: 0
# Processed by: cddbd v1.5.2PL0 Copyright (c) Steve Scherf et al.
# Submitted via: dBpowerAMP V4.0
#
DISCID=9f08ba0c
DTITLE=Doerfel Family - Big Pine
DYEAR=1900
DGENRE=Bluegrass
TTITLE0=The Guitar Song
TTITLE1=The Likes Of You
TTITLE2=Mansion For Me
TTITLE3=Big Pine
TTITLE4=Don't Call Me Honey
TTITLE5=Hot Corn Cold Corn
TTITLE6=Don't Forget The Coffee
TTITLE7=It's Been A Long Time
TTITLE8=Islamorada
TTITLE9=Don't Give Your Heart To A Rambler
TTITLE10=Die From Love
TTITLE11=Ride This Train With Me
EXTD=
EXTT0=
EXTT1=
EXTT2=
EXTT3=
EXTT4=
EXTT5=
EXTT6=
EXTT7=
EXTT8=
EXTT9=
EXTT10=
EXTT11=
PLAYORDER=
